<svg width="251" height="250" viewBox="0 0 251 250" fill="none" xmlns="http://www.w3.org/2000/svg">
<path d="M192.271 188.438L162.896 217.813" stroke="#2F2FC8" stroke-width="10" stroke-linecap="round" stroke-linejoin="round"/>
<path d="M192.271 217.813L162.896 188.438" stroke="#2F2FC8" stroke-width="10" stroke-linecap="round" stroke-linejoin="round"/>
<path d="M127.167 113.229C126.125 113.125 124.875 113.125 123.729 113.229C98.9375 112.396 79.25 92.0832 79.25 67.0832C79.25 41.5624 99.875 20.8333 125.5 20.8333C151.021 20.8333 171.75 41.5624 171.75 67.0832C171.646 92.0832 151.958 112.396 127.167 113.229Z" stroke="#2F2FC8" stroke-width="10" stroke-linecap="round" stroke-linejoin="round"/>
<path d="M125.5 227.188C106.542 227.188 87.6875 222.396 73.3125 212.813C48.1042 195.938 48.1042 168.438 73.3125 151.667C101.958 132.5 148.938 132.5 177.583 151.667" stroke="#2F2FC8" stroke-width="10" stroke-linecap="round" stroke-linejoin="round"/>
</svg>
