<svg width="30" height="30" viewBox="0 0 30 30" fill="none" xmlns="http://www.w3.org/2000/svg">
<rect width="30" height="30" rx="15" fill="#CCCCCC"/>
<path d="M15.1601 13.87C15.0601 13.86 14.9401 13.86 14.8301 13.87C12.4501 13.79 10.5601 11.84 10.5601 9.44C10.5601 6.99 12.5401 5 15.0001 5C17.4501 5 19.4401 6.99 19.4401 9.44C19.4301 11.84 17.5401 13.79 15.1601 13.87Z" stroke="#333333" stroke-width="1.5" stroke-linecap="round" stroke-linejoin="round"/>
<path d="M10.1602 17.56C7.74021 19.18 7.74021 21.82 10.1602 23.43C12.9102 25.27 17.4202 25.27 20.1702 23.43C22.5902 21.81 22.5902 19.17 20.1702 17.56C17.4302 15.73 12.9202 15.73 10.1602 17.56Z" stroke="#333333" stroke-width="1.5" stroke-linecap="round" stroke-linejoin="round"/>
</svg>
