<svg width="24" height="25" viewBox="0 0 24 25" fill="none" xmlns="http://www.w3.org/2000/svg">
<path d="M14.53 9.61812L9.47004 14.6781C8.82004 14.0281 8.42004 13.1381 8.42004 12.1481C8.42004 10.1681 10.02 8.56812 12 8.56812C12.99 8.56812 13.88 8.96812 14.53 9.61812Z" stroke="#999999" stroke-width="1.5" stroke-linecap="round" stroke-linejoin="round"/>
<path d="M17.82 5.91805C16.07 4.59805 14.07 3.87805 12 3.87805C8.46997 3.87805 5.17997 5.95805 2.88997 9.55805C1.98997 10.9681 1.98997 13.3381 2.88997 14.7481C3.67997 15.9881 4.59997 17.0581 5.59997 17.9181" stroke="#999999" stroke-width="1.5" stroke-linecap="round" stroke-linejoin="round"/>
<path d="M8.42004 19.6781C9.56004 20.1581 10.77 20.4181 12 20.4181C15.53 20.4181 18.82 18.3381 21.11 14.7381C22.01 13.3281 22.01 10.9581 21.11 9.54812C20.78 9.02812 20.42 8.53813 20.05 8.07812" stroke="#999999" stroke-width="1.5" stroke-linecap="round" stroke-linejoin="round"/>
<path d="M15.5099 12.848C15.2499 14.258 14.0999 15.408 12.6899 15.668" stroke="#999999" stroke-width="1.5" stroke-linecap="round" stroke-linejoin="round"/>
<path d="M9.47 14.6781L2 22.1481" stroke="#999999" stroke-width="1.5" stroke-linecap="round" stroke-linejoin="round"/>
<path d="M22 2.14807L14.53 9.61807" stroke="#999999" stroke-width="1.5" stroke-linecap="round" stroke-linejoin="round"/>
</svg>
