<svg width="24" height="25" viewBox="0 0 24 25" fill="none" xmlns="http://www.w3.org/2000/svg">
<path d="M14.53 9.61812L9.47 14.6781C8.82 14.0281 8.42 13.1381 8.42 12.1481C8.42 10.1681 10.02 8.56812 12 8.56812C12.99 8.56812 13.88 8.96812 14.53 9.61812Z" stroke="#CCCCCC" stroke-width="1.5" stroke-linecap="round" stroke-linejoin="round"/>
<path d="M17.82 5.91805C16.07 4.59805 14.07 3.87805 12 3.87805C8.47 3.87805 5.18 5.95805 2.89 9.55805C1.99 10.9681 1.99 13.3381 2.89 14.7481C3.68 15.9881 4.6 17.0581 5.6 17.9181" stroke="#CCCCCC" stroke-width="1.5" stroke-linecap="round" stroke-linejoin="round"/>
<path d="M8.42 19.6781C9.56 20.1581 10.77 20.4181 12 20.4181C15.53 20.4181 18.82 18.3381 21.11 14.7381C22.01 13.3281 22.01 10.9581 21.11 9.54812C20.78 9.02812 20.42 8.53813 20.05 8.07812" stroke="#CCCCCC" stroke-width="1.5" stroke-linecap="round" stroke-linejoin="round"/>
<path d="M15.51 12.848C15.25 14.258 14.1 15.408 12.69 15.668" stroke="#CCCCCC" stroke-width="1.5" stroke-linecap="round" stroke-linejoin="round"/>
<path d="M9.47 14.6781L2 22.1481" stroke="#CCCCCC" stroke-width="1.5" stroke-linecap="round" stroke-linejoin="round"/>
<path d="M22 2.14807L14.53 9.61807" stroke="#CCCCCC" stroke-width="1.5" stroke-linecap="round" stroke-linejoin="round"/>
</svg>
