<svg width="30" height="30" viewBox="0 0 30 30" fill="none" xmlns="http://www.w3.org/2000/svg">
<circle cx="15" cy="15" r="15" fill="#2F2FC8"/>
<path d="M22.6466 20.2197C22.6466 20.4597 22.5933 20.7063 22.4799 20.9463C22.3666 21.1863 22.2199 21.413 22.0266 21.6263C21.6999 21.9863 21.3399 22.2463 20.9333 22.413C20.5333 22.5797 20.0999 22.6663 19.6333 22.6663C18.9533 22.6663 18.2266 22.5063 17.4599 22.1797C16.6933 21.853 15.9266 21.413 15.1666 20.8597C14.3999 20.2997 13.6733 19.6797 12.9799 18.993C12.2933 18.2997 11.6733 17.573 11.1199 16.813C10.5733 16.053 10.1333 15.293 9.81325 14.5397C9.49325 13.7797 9.33325 13.053 9.33325 12.3597C9.33325 11.9063 9.41325 11.473 9.57325 11.073C9.73325 10.6663 9.98659 10.293 10.3399 9.95967C10.7666 9.53967 11.2333 9.33301 11.7266 9.33301C11.9133 9.33301 12.0999 9.37301 12.2666 9.45301C12.4399 9.53301 12.5933 9.65301 12.7133 9.82634L14.2599 12.0063C14.3799 12.173 14.4666 12.3263 14.5266 12.473C14.5866 12.613 14.6199 12.753 14.6199 12.8797C14.6199 13.0397 14.5733 13.1997 14.4799 13.353C14.3933 13.5063 14.2666 13.6663 14.1066 13.8263L13.5999 14.353C13.5266 14.4263 13.4933 14.513 13.4933 14.6197C13.4933 14.673 13.4999 14.7197 13.5133 14.773C13.5333 14.8263 13.5533 14.8663 13.5666 14.9063C13.6866 15.1263 13.8933 15.413 14.1866 15.7597C14.4866 16.1063 14.8066 16.4597 15.1533 16.813C15.5133 17.1663 15.8599 17.493 16.2133 17.793C16.5599 18.0863 16.8466 18.2863 17.0733 18.4063C17.1066 18.4197 17.1466 18.4397 17.1933 18.4597C17.2466 18.4797 17.2999 18.4863 17.3599 18.4863C17.4733 18.4863 17.5599 18.4463 17.6333 18.373L18.1399 17.873C18.3066 17.7063 18.4666 17.5797 18.6199 17.4997C18.7733 17.4063 18.9266 17.3597 19.0933 17.3597C19.2199 17.3597 19.3533 17.3863 19.4999 17.4463C19.6466 17.5063 19.7999 17.593 19.9666 17.7063L22.1733 19.273C22.3466 19.393 22.4666 19.533 22.5399 19.6997C22.6066 19.8663 22.6466 20.033 22.6466 20.2197Z" stroke="white" stroke-width="2" stroke-miterlimit="10"/>
</svg>
