<svg width="16" height="16" viewBox="0 0 16 16" fill="none" xmlns="http://www.w3.org/2000/svg">
<g clip-path="url(#clip0_70_3876)">
<path fill-rule="evenodd" clip-rule="evenodd" d="M2.64571 6C3.05368 4.90929 3.78502 3.96918 4.74189 3.30548C5.69875 2.64178 6.83549 2.28613 8 2.28613C9.16451 2.28613 10.3013 2.64178 11.2581 3.30548C12.215 3.96918 12.9463 4.90929 13.3543 6H2.64571ZM2.29257 7.71429C2.22186 9.12882 2.67888 10.5192 3.57502 11.616C4.47117 12.7127 5.7426 13.4377 7.14286 13.6503V10.4491L4.74971 7.71429H2.29257ZM8.85714 13.6503C10.2574 13.4377 11.5288 12.7127 12.425 11.616C13.3211 10.5192 13.7781 9.12882 13.7074 7.71429H11.2503L8.85714 10.4491V13.6503ZM8 0C5.87827 0 3.84344 0.842855 2.34315 2.34315C0.842855 3.84344 0 5.87827 0 8C0 10.1217 0.842855 12.1566 2.34315 13.6569C3.84344 15.1571 5.87827 16 8 16C10.1217 16 12.1566 15.1571 13.6569 13.6569C15.1571 12.1566 16 10.1217 16 8C16 5.87827 15.1571 3.84344 13.6569 2.34315C12.1566 0.842855 10.1217 0 8 0Z" fill="#666666"/>
</g>
<defs>
<clipPath id="clip0_70_3876">
<rect width="16" height="16" fill="white"/>
</clipPath>
</defs>
</svg>
