<svg width="41" height="41" viewBox="0 0 41 41" fill="none" xmlns="http://www.w3.org/2000/svg">
<rect x="0.5" y="0.5" width="40" height="40" rx="10" fill="#2F2FC8" fill-opacity="0.1"/>
<path d="M24.01 11.3301H16.99C14.5 11.3301 13.95 12.5701 13.63 14.0901L12.5 19.5001H28.5L27.37 14.0901C27.05 12.5701 26.5 11.3301 24.01 11.3301Z" stroke="#2F2FC8" stroke-width="1.5" stroke-linecap="round" stroke-linejoin="round"/>
<path d="M30.4902 28.32C30.6002 29.49 29.6602 30.5 28.4602 30.5H26.5802C25.5002 30.5 25.3502 30.04 25.1602 29.47L24.9602 28.87C24.6802 28.05 24.5002 27.5 23.0602 27.5H17.9402C16.5002 27.5 16.2902 28.12 16.0402 28.87L15.8402 29.47C15.6502 30.04 15.5002 30.5 14.4202 30.5H12.5402C11.3402 30.5 10.4002 29.49 10.5102 28.32L11.0702 22.23C11.2102 20.73 11.5002 19.5 14.1202 19.5H26.8802C29.5002 19.5 29.7902 20.73 29.9302 22.23L30.4902 28.32Z" stroke="#2F2FC8" stroke-width="1.5" stroke-linecap="round" stroke-linejoin="round"/>
<path d="M12.5 16.5H11.5" stroke="#2F2FC8" stroke-width="1.5" stroke-linecap="round" stroke-linejoin="round"/>
<path d="M29.5 16.5H28.5" stroke="#2F2FC8" stroke-width="1.5" stroke-linecap="round" stroke-linejoin="round"/>
<path d="M20.5 11.5V13.5" stroke="#292D32" stroke-width="1.5" stroke-linecap="round" stroke-linejoin="round"/>
<path d="M19 13.5H22" stroke="#292D32" stroke-width="1.5" stroke-linecap="round" stroke-linejoin="round"/>
<path d="M14.5 23.5H17.5" stroke="#292D32" stroke-width="1.5" stroke-linecap="round" stroke-linejoin="round"/>
<path d="M23.5 23.5H26.5" stroke="#292D32" stroke-width="1.5" stroke-linecap="round" stroke-linejoin="round"/>
</svg>
