<svg width="40" height="41" viewBox="0 0 40 41" fill="none" xmlns="http://www.w3.org/2000/svg">
<rect y="0.5" width="40" height="40" rx="10" fill="#2F2FC8" fill-opacity="0.1"/>
<path d="M17.1601 19.37C17.0601 19.36 16.9401 19.36 16.8301 19.37C14.4501 19.29 12.5601 17.34 12.5601 14.94C12.5601 12.49 14.5401 10.5 17.0001 10.5C19.4501 10.5 21.4401 12.49 21.4401 14.94C21.4301 17.34 19.5401 19.29 17.1601 19.37Z" stroke="#2F2FC8" stroke-width="1.5" stroke-linecap="round" stroke-linejoin="round"/>
<path d="M24.4098 12.5C26.3498 12.5 27.9098 14.07 27.9098 16C27.9098 17.89 26.4098 19.43 24.5398 19.5C24.4598 19.49 24.3698 19.49 24.2798 19.5" stroke="#2F2FC8" stroke-width="1.5" stroke-linecap="round" stroke-linejoin="round"/>
<path d="M12.1602 23.06C9.74021 24.68 9.74021 27.32 12.1602 28.93C14.9102 30.77 19.4202 30.77 22.1702 28.93C24.5902 27.31 24.5902 24.67 22.1702 23.06C19.4302 21.23 14.9202 21.23 12.1602 23.06Z" stroke="#2F2FC8" stroke-width="1.5" stroke-linecap="round" stroke-linejoin="round"/>
<path d="M26.3398 28.5C27.0598 28.35 27.7398 28.06 28.2998 27.63C29.8598 26.46 29.8598 24.53 28.2998 23.36C27.7498 22.94 27.0798 22.66 26.3698 22.5" stroke="#2F2FC8" stroke-width="1.5" stroke-linecap="round" stroke-linejoin="round"/>
</svg>
