<svg width="40" height="41" viewBox="0 0 40 41" fill="none" xmlns="http://www.w3.org/2000/svg">
<rect y="0.5" width="40" height="40" rx="10" fill="#2F2FC8" fill-opacity="0.1"/>
<path d="M20.1601 19.37C20.0601 19.36 19.9401 19.36 19.8301 19.37C17.4501 19.29 15.5601 17.34 15.5601 14.94C15.5601 12.49 17.5401 10.5 20.0001 10.5C22.4501 10.5 24.4401 12.49 24.4401 14.94C24.4301 17.34 22.5401 19.29 20.1601 19.37Z" stroke="#2F2FC8" stroke-width="1.5" stroke-linecap="round" stroke-linejoin="round"/>
<path d="M15.1602 23.06C12.7402 24.68 12.7402 27.32 15.1602 28.93C17.9102 30.77 22.4202 30.77 25.1702 28.93C27.5902 27.31 27.5902 24.67 25.1702 23.06C22.4302 21.23 17.9202 21.23 15.1602 23.06Z" stroke="#2F2FC8" stroke-width="1.5" stroke-linecap="round" stroke-linejoin="round"/>
</svg>
