<svg width="50" height="50" viewBox="0 0 50 50" fill="none" xmlns="http://www.w3.org/2000/svg">
<rect width="50" height="50" rx="25" fill="#2F2FC8" fill-opacity="0.19"/>
<path d="M29.9 35H20.1C18.4 35 17 33.61 17 31.9V18.1C17 16.4 18.39 15 20.1 15H29.9C31.6 15 33 16.39 33 18.1V31.9C33 33.61 31.61 35 29.9 35Z" stroke="#2F2FC8" stroke-width="1.5" stroke-linecap="round" stroke-linejoin="round"/>
<path d="M31.5 26H18.5C17.67 26 17 25.33 17 24.5V22.5C17 21.67 17.67 21 18.5 21H31.5C32.33 21 33 21.67 33 22.5V24.5C33 25.33 32.33 26 31.5 26Z" stroke="#2F2FC8" stroke-width="1.5" stroke-linecap="round" stroke-linejoin="round"/>
<path d="M21.4945 30.7H21.5035" stroke="#2F2FC8" stroke-width="2.5" stroke-linecap="round" stroke-linejoin="round"/>
<path d="M28.4945 30.7H28.5035" stroke="#2F2FC8" stroke-width="2.5" stroke-linecap="round" stroke-linejoin="round"/>
<path d="M22.5 18H27.5" stroke="#2F2FC8" stroke-width="1.5" stroke-linecap="round" stroke-linejoin="round"/>
</svg>
