<svg width="400" height="263" viewBox="0 0 400 263" fill="none" xmlns="http://www.w3.org/2000/svg">
<path d="M77.353 33.8391L0 85.7633L76.1924 200.06L153.545 148.136L77.353 33.8391Z" fill="#F5F5F5"/>
<path d="M113.573 142.73L112.697 148.181L74.2417 142.619L75.1172 137.167L113.573 142.73Z" fill="#E0E0E0"/>
<path d="M94.2072 123.283L99.7225 124.078L93.6074 162.073L88.0851 161.27L94.2072 123.283Z" fill="#E0E0E0"/>
<path d="M58.8194 74.9942C58.8746 75.0703 51.1255 80.3765 41.5082 86.8242C31.8908 93.2719 24.0522 98.4467 23.997 98.3637C23.9419 98.2807 31.6909 92.9814 41.3083 86.5267C50.9256 80.0721 58.7298 74.9112 58.8194 74.9942Z" fill="#E0E0E0"/>
<path d="M87.2372 67.827C87.2923 67.91 74.4002 76.6546 58.4472 87.3638C42.4941 98.0731 29.4917 106.686 29.4503 106.61C29.4089 106.534 42.2734 97.7756 58.2472 87.0664C74.221 76.3571 87.182 67.744 87.2372 67.827Z" fill="#E0E0E0"/>
<path d="M92.9386 76.3779C92.9938 76.4609 80.1017 85.2123 64.1486 95.9216C48.1955 106.631 35.1931 115.244 35.1518 115.161C35.1104 115.078 47.9887 106.333 63.9487 95.6172C79.9087 84.901 92.8835 76.2948 92.9386 76.3779Z" fill="#E0E0E0"/>
<path d="M98.6401 84.9356C98.6953 85.0186 85.8032 93.7701 69.8501 104.472C53.897 115.175 40.8946 123.802 40.8946 123.719C40.8946 123.636 53.7246 114.884 69.6846 104.175C85.6446 93.4657 98.5849 84.8526 98.6401 84.9356Z" fill="#E0E0E0"/>
<path d="M104.321 93.4933C104.376 93.5763 91.484 102.321 75.5309 113.03C59.5778 123.739 46.5754 132.353 46.5409 132.269C46.5064 132.186 59.3916 123.442 75.3654 112.733C91.3392 102.023 104.321 93.4103 104.321 93.4933Z" fill="#E0E0E0"/>
<path d="M336.013 110.425L271.048 154.033L335.036 250.021L400 206.413L336.013 110.425Z" fill="#F5F5F5"/>
<path d="M366.437 201.894L365.699 206.473L333.4 201.804L334.145 197.224L366.437 201.894Z" fill="#E0E0E0"/>
<path d="M350.174 185.56L354.806 186.231L349.67 218.137L345.031 217.466L350.174 185.56Z" fill="#E0E0E0"/>
<path d="M320.425 145.04C320.48 145.123 313.979 149.586 305.899 155.003C297.819 160.419 291.229 164.75 291.173 164.688C291.118 164.626 297.626 160.15 305.699 154.726C313.772 149.302 320.37 144.923 320.425 145.04Z" fill="#E0E0E0"/>
<path d="M344.314 138.987C344.369 139.07 333.552 146.431 320.184 155.418C306.816 164.404 295.875 171.641 295.82 171.558C295.765 171.475 306.582 164.114 319.95 155.12C333.317 146.126 344.238 138.904 344.314 138.987Z" fill="#E0E0E0"/>
<path d="M349.105 146.168C349.16 146.251 338.343 153.612 324.975 162.606C311.608 171.599 300.667 178.822 300.611 178.739C300.556 178.656 311.339 171.329 324.741 162.336C338.143 153.342 349.064 146.092 349.105 146.168Z" fill="#E0E0E0"/>
<path d="M353.89 153.342C353.945 153.425 343.121 160.786 329.76 169.78C316.399 178.773 305.451 185.996 305.396 185.913C305.341 185.83 316.158 178.476 329.526 169.475C342.893 160.475 353.841 153.273 353.89 153.342Z" fill="#E0E0E0"/>
<path d="M358.715 160.544C358.771 160.627 347.954 167.981 334.586 176.975C321.218 185.968 310.277 193.191 310.222 193.115C310.167 193.038 320.984 185.671 334.351 176.677C347.719 167.683 358.626 160.461 358.715 160.544Z" fill="#E0E0E0"/>
<path d="M233.236 38.0441L162.352 0L106.527 104.738L177.411 142.782L233.236 38.0441Z" fill="#F5F5F5"/>
<path d="M165.279 110.014L160.784 111.557L149.367 79.8923L153.869 78.3426L165.279 110.014Z" fill="#E0E0E0"/>
<path d="M172.173 87.2947L173.814 91.8399L142.473 102.611L140.832 98.0662L172.173 87.2947Z" fill="#E0E0E0"/>
<path d="M194.441 40.5765C194.386 40.6803 187.203 36.9307 178.385 32.2056C169.567 27.4805 162.473 23.5579 162.528 23.4541C162.583 23.3504 169.774 27.1 178.592 31.8251C187.409 36.5502 194.497 40.4658 194.441 40.5765Z" fill="#E0E0E0"/>
<path d="M211.456 59.4146C211.401 59.5183 199.502 53.2367 184.879 45.3915C170.257 37.5463 158.454 31.0986 158.509 30.9949C158.564 30.8911 170.457 37.1658 185.079 45.0179C199.702 52.87 211.511 59.3108 211.456 59.4146Z" fill="#E0E0E0"/>
<path d="M207.278 67.2528C207.223 67.3566 195.324 61.0818 180.701 53.2298C166.079 45.3777 154.276 38.9369 154.331 38.8331C154.386 38.7293 166.279 45.011 180.901 52.8562C195.524 60.7014 207.333 67.1491 207.278 67.2528Z" fill="#E0E0E0"/>
<path d="M203.1 75.0911C203.045 75.1948 191.146 68.9201 176.523 61.0749C161.901 53.2297 150.098 46.8028 150.153 46.6783C150.208 46.5537 162.101 52.8492 176.723 60.6944C191.346 68.5396 203.156 74.9873 203.1 75.0911Z" fill="#E0E0E0"/>
<path d="M198.923 82.9293C198.867 83.033 186.968 76.7583 172.346 68.9131C157.723 61.068 145.913 54.6202 145.975 54.5165C146.037 54.4127 157.923 60.6875 172.546 68.5326C187.168 76.3778 198.978 82.8255 198.923 82.9293Z" fill="#E0E0E0"/>
<path d="M131.898 120.189L107.492 245.961L104.321 262.426L267.023 261.637C274.331 261.602 280.811 255.093 283.149 245.421L312.008 126.685C313.793 119.345 309.877 111.707 304.334 111.714L139.619 111.887C136.034 111.88 132.821 115.284 131.898 120.189Z" fill="#2F2FC8"/>
<g opacity="0.5">
<path d="M131.898 120.189L107.492 245.961L104.321 262.426L267.023 261.637C274.331 261.602 280.811 255.093 283.149 245.421L312.008 126.685C313.793 119.345 309.877 111.707 304.334 111.714L139.619 111.887C136.034 111.88 132.821 115.284 131.898 120.189Z" fill="#333333"/>
</g>
<path d="M251.435 237.424L234.2 98.0854C233.511 92.378 228.967 88.1164 223.611 88.1372L185.831 88.2548C184.427 88.2706 183.041 88.5733 181.757 89.1442C180.473 89.7151 179.319 90.5423 178.364 91.5755L160.439 110.718L55.3723 111.285C48.9539 111.32 44.0177 117.422 44.8656 124.271L60.867 253.052C61.5564 258.752 66.0997 263.007 71.4426 263L254.586 262.633C274.979 263.055 276.93 257.016 276.93 257.016C253.517 262.211 251.435 237.458 251.435 237.424Z" fill="#2F2FC8"/>
<g opacity="0.5">
<path d="M172.463 209.557L166.286 216.213L118.716 173.265L124.893 166.61L172.463 209.557Z" fill="white"/>
<path d="M163.7 165.136L170.526 171.3L127.485 217.686L120.653 211.522L163.7 165.136Z" fill="white"/>
</g>
</svg>
